<?xml version="1.0" encoding="UTF-8"?>
<svg width="1200pt" height="1200pt" version="1.1" viewBox="0 0 1200 1200" xmlns="http://www.w3.org/2000/svg">
 <path d="m201 831.05c-1.125 35.719 0.60938 78.234-11.859 125.26-8.2031 30.891-16.875 63.469-23.344 96.281v0.046874c-3.1406 19.172 19.828 35.719 36.984 23.016 4.9688-3.6562 10.266-11.25 11.531-18 10.031-55.125 88.031-282.19 57.984-316.08l-31.453-35.484c-18.188-20.484-23.672-41.297-29.719-65.297-0.60938-2.2969-3.9844-1.9219-4.0781 0.42188zm818.39-282.98v518.16c0 8.5781-6.9844 15.516-15.516 15.516-8.5781 0-15.516-6.9844-15.516-15.516l-0.046875-536.81c0-0.60937-0.23438-1.0781-0.65625-1.5l-127.69-120.1c-9.9844-9.375-26.484-2.0156-26.109 11.625l4.8281 160.03c0.046874 1.1719-0.89063 2.1562-2.0625 2.1562l-151.78-0.046875c-1.1719 0-2.1094-0.98438-2.0625-2.1562l6-159.19c0.79688-14.719-16.172-21.797-26.109-12.469l-130.78 123.1c-22.031 20.719-69 25.969-35.484-14.109l0.09375-0.09375 164.48-176.16 0.046875-0.046875c11.438-12.891 22.734-23.578 40.875-23.578h118.88c18.141 0 29.484 10.641 40.875 23.578l0.046875 0.046875 164.48 176.16 0.09375 0.09375c22.078 26.391 11.531 32.438-4.4062 29.297-1.3125-0.28125-2.4844 0.70312-2.4844 2.0156zm-179.86 64.594h-157.6c-1.0312 0-1.875 0.70312-2.0156 1.7344l-74.344 442.92v0.046875c-3.375 18.234 2.3438 28.125 17.438 23.297 10.922-3.5156 22.078-14.391 26.953-32.391l85.453-315.1c3.8438-14.203 18.797-29.766 32.297-23.672 9.7969 4.4062 16.734 13.312 19.547 23.672l85.453 315.1c7.9688 29.438 32.906 38.578 41.297 31.031 3.9844-3.6094 5.0156-10.266 3.0938-21.938l-75.562-442.92c-0.14062-1.0312-1.0312-1.7812-2.0156-1.7812zm-136.55-394.4c0 51.844 62.953 77.953 99.656 41.297 36.656-36.656 10.594-99.656-41.297-99.656-32.25 0-58.359 26.109-58.359 58.359zm-141.05 187.74-150.89-48.656c-1.3594-0.46875-2.7656 0.60937-2.7188 2.0625 0.79688 18.984 1.0312 36.094 1.0312 55.453 0 1.0781 0.79688 1.9688 1.875 2.0625l132.94 13.312c0.70312 0.09375 1.3594-0.1875 1.7812-0.70312l16.922-20.203c0.9375-1.125 0.46875-2.8594-0.9375-3.3281zm-296.76-171.1c51.703-0.23438 77.578-63.047 41.016-99.656-36.656-36.656-99.656-10.594-99.656 41.297 0.046875 32.25 26.062 58.359 58.641 58.359zm-22.781 219.24 133.4 24.703c1.2656 0.23437 2.4375-0.75 2.4375-2.0156l0.046875-100.45h0.046875c-0.09375-57.609-55.547-110.39-113.39-110.39-71.719 0-77.156 46.781-90.797 103.92-0.23438 1.0312 0.32812 2.1094 1.3594 2.4375l66.844 21.656c7.8281 2.5312 12.281 10.641 10.312 18.516h0.046875l-10.406 41.578zm-26.297 75.844c-0.09375 0-0.14062 0-0.23438-0.046874-34.781-6.375-58.5-38.672-54.188-73.828l6.2812-51.047c0.14062-1.3125 1.4531-2.1094 2.7188-1.7344l46.594 15.094c1.0312 0.32813 1.6406 1.4062 1.3594 2.4844l-7.0312 28.031c-4.3125 17.203 8.8594 32.672 25.266 35.672l146.48 27.141c7.9688 1.4531 14.203 4.4062 18.375 8.0156 2.7656 2.3906 4.2656 4.7344 4.1719 6.5156-0.5625 10.078-17.859 16.828-30.188 15.844zm152.11 128.02v0.14062l60.984 391.45c1.1719 7.6406-0.046874 15.141-3.4219 21.047h-0.046876c-10.688 18.516-38.719 12.469-43.172-6.7969l-68.156-313.03c-1.6406-7.5-13.594-23.578-19.031-29.719l-31.453-35.484c-8.5312-9.6562-13.828-19.5-17.203-32.016l-34.641-89.672c-0.5625-1.4062 0.5625-2.9062 2.0625-2.8125l146.44 8.7656c1.0781 0.046874 1.9688 0.98437 1.9688 2.0625v23.672z" fill-rule="evenodd"/>
</svg>
